<svg width="32" height="19" viewBox="0 0 32 19" fill="none" xmlns="http://www.w3.org/2000/svg">
<path d="M31.1667 3.79166L17.1667 17.8333C17 18 16.8195 18.1183 16.625 18.1883C16.4306 18.2583 16.2223 18.2928 16 18.2917C15.7778 18.2917 15.5695 18.2572 15.375 18.1883C15.1806 18.1194 15 18.0011 14.8334 17.8333L0.791707 3.79166C0.402818 3.40277 0.208374 2.91666 0.208374 2.33333C0.208374 1.75 0.416707 1.25 0.833374 0.83333C1.25004 0.416662 1.73615 0.20833 2.29171 0.20833C2.84726 0.20833 3.33337 0.416662 3.75004 0.83333L16 13.0833L28.25 0.83333C28.6389 0.444441 29.1184 0.249996 29.6884 0.249996C30.2584 0.249996 30.7512 0.458328 31.1667 0.874996C31.5834 1.29166 31.7917 1.77777 31.7917 2.33333C31.7917 2.88888 31.5834 3.375 31.1667 3.79166Z" fill="#D4ADFC"/>
</svg>
