<svg width="28" height="30" viewBox="0 0 28 30" fill="none" xmlns="http://www.w3.org/2000/svg">
<path d="M9.66699 22.5L14.0003 18.1667L18.3337 22.5L20.667 20.1667L16.3337 15.8333L20.667 11.5L18.3337 9.16667L14.0003 13.5L9.66699 9.16667L7.33366 11.5L11.667 15.8333L7.33366 20.1667L9.66699 22.5ZM5.66699 30C4.75033 30 3.96533 29.6733 3.31199 29.02C2.65866 28.3667 2.33255 27.5822 2.33366 26.6667V5H0.666992V1.66667H9.00033V0H19.0003V1.66667H27.3337V5H25.667V26.6667C25.667 27.5833 25.3403 28.3683 24.687 29.0217C24.0337 29.675 23.2492 30.0011 22.3337 30H5.66699ZM22.3337 5H5.66699V26.6667H22.3337V5Z" fill="#D4ADFC"/>
</svg>
