<svg width="40" height="40" viewBox="0 0 40 40" fill="none" xmlns="http://www.w3.org/2000/svg">
<path d="M9.99996 3.33333H25C25.884 3.33333 26.7319 3.68452 27.357 4.30964C27.9821 4.93476 28.3333 5.78261 28.3333 6.66666V9.99999H25V6.66666H9.99996V33.3333H25V30H28.3333V33.3333C28.3333 34.2174 27.9821 35.0652 27.357 35.6903C26.7319 36.3155 25.884 36.6667 25 36.6667H9.99996C9.1159 36.6667 8.26806 36.3155 7.64294 35.6903C7.01782 35.0652 6.66663 34.2174 6.66663 33.3333V6.66666C6.66663 5.78261 7.01782 4.93476 7.64294 4.30964C8.26806 3.68452 9.1159 3.33333 9.99996 3.33333Z" fill="#D4ADFC"/>
<path d="M26.8167 25.9833L29.1667 28.3333L37.5 20L29.1667 11.6667L26.8167 14.0167L31.1167 18.3333H15V21.6667H31.1167L26.8167 25.9833Z" fill="#D4ADFC"/>
</svg>
