<svg width="24" height="26" viewBox="0 0 24 26" fill="none" xmlns="http://www.w3.org/2000/svg">
<path d="M11.9988 0C18.6269 0 24 5.82082 24 13.0013C24 20.1805 18.6269 26 11.9988 26C5.37066 26.0013 2.00968e-07 20.1805 2.00968e-07 13.0013C-0.00119968 5.82082 5.37066 0 11.9988 0ZM11.9988 1.9498C10.6499 1.93396 9.3115 2.20809 8.06106 2.75634C6.81061 3.30459 5.67295 4.11606 4.71392 5.1438C3.7549 6.17154 2.99355 7.39513 2.47394 8.74376C1.95433 10.0924 1.68679 11.5393 1.68679 13.0007C1.68679 14.462 1.95433 15.9089 2.47394 17.2575C2.99355 18.6062 3.7549 19.8298 4.71392 20.8575C5.67295 21.8852 6.81061 22.6967 8.06106 23.245C9.3115 23.7932 10.6499 24.0673 11.9988 24.0515C14.6851 24.0199 17.2514 22.8418 19.1406 20.7727C21.0299 18.7037 22.0895 15.9109 22.0895 13.0007C22.0895 10.0904 21.0299 7.29756 19.1406 5.22855C17.2514 3.15955 14.6851 1.98137 11.9988 1.9498ZM11.9988 14.9485C13.9558 14.9485 15.7904 15.7986 17.1355 17.2818C17.2229 17.372 17.2927 17.4803 17.3407 17.6004C17.3887 17.7204 17.4139 17.8497 17.4149 17.9805C17.4158 18.1113 17.3924 18.241 17.3461 18.3618C17.2997 18.4826 17.2315 18.5921 17.1453 18.6837C17.0591 18.7753 16.9568 18.8472 16.8444 18.8951C16.732 18.943 16.6119 18.9659 16.4912 18.9624C16.3705 18.959 16.2516 18.9292 16.1418 18.875C16.0319 18.8207 15.9332 18.7431 15.8516 18.6466C15.3496 18.0917 14.7503 17.651 14.0889 17.3505C13.4274 17.0501 12.7172 16.8959 12 16.897C11.2808 16.8957 10.5687 17.0505 9.90575 17.3524C9.24277 17.6542 8.64235 18.097 8.13999 18.6544C8.05726 18.7459 7.95871 18.8189 7.84996 18.8691C7.74122 18.9193 7.6244 18.9459 7.50618 18.9472C7.38797 18.9485 7.27067 18.9246 7.16098 18.8769C7.0513 18.8291 6.95137 18.7584 6.86691 18.6687C6.78246 18.5791 6.71512 18.4724 6.66875 18.3545C6.62238 18.2367 6.59788 18.1102 6.59665 17.9821C6.59543 17.854 6.6175 17.727 6.6616 17.6081C6.70571 17.4893 6.77099 17.3811 6.85371 17.2896C7.52368 16.5471 8.32408 15.9574 9.20773 15.5554C10.0914 15.1533 11.0404 14.947 11.9988 14.9485ZM8.39916 8.77672C8.59961 8.77058 8.79917 8.80804 8.98602 8.8869C9.17288 8.96576 9.34324 9.08442 9.48703 9.23584C9.63082 9.38727 9.74512 9.5684 9.82316 9.76851C9.90121 9.96863 9.94143 10.1837 9.94143 10.4009C9.94143 10.6182 9.90121 10.8332 9.82316 11.0333C9.74512 11.2334 9.63082 11.4145 9.48703 11.566C9.34324 11.7174 9.17288 11.8361 8.98602 11.9149C8.79917 11.9938 8.59961 12.0312 8.39916 12.0251C8.00888 12.0131 7.63828 11.8368 7.36613 11.5335C7.09398 11.2302 6.94173 10.8239 6.94173 10.4009C6.94173 9.97793 7.09398 9.57163 7.36613 9.26834C7.63828 8.96505 8.00888 8.78868 8.39916 8.77672ZM15.5984 8.77672C15.7989 8.77058 15.9984 8.80804 16.1853 8.8869C16.3722 8.96576 16.5425 9.08442 16.6863 9.23584C16.8301 9.38727 16.9444 9.5684 17.0224 9.76851C17.1005 9.96863 17.1407 10.1837 17.1407 10.4009C17.1407 10.6182 17.1005 10.8332 17.0224 11.0333C16.9444 11.2334 16.8301 11.4145 16.6863 11.566C16.5425 11.7174 16.3722 11.8361 16.1853 11.9149C15.9984 11.9938 15.7989 12.0312 15.5984 12.0251C15.2082 12.0131 14.8376 11.8368 14.5654 11.5335C14.2933 11.2302 14.141 10.8239 14.141 10.4009C14.141 9.97793 14.2933 9.57163 14.5654 9.26834C14.8376 8.96505 15.2082 8.78868 15.5984 8.77672Z" fill="#5C469C"/>
</svg>
