<svg width="420" height="100" viewBox="0 0 420 100" fill="none" xmlns="http://www.w3.org/2000/svg">
<g clip-path="url(#clip0_8_105)">
<g filter="url(#filter0_d_8_105)">
<path d="M61.2271 64.6849H80.3682V47.5891H61.2271V64.6849ZM65.0307 50.9863H76.5645V61.2877H65.0307V50.9863Z" fill="#5C469C"/>
<path d="M114.601 51.3151C111.656 51.3151 109.202 53.5068 109.202 56.137C109.202 58.7671 111.656 60.9589 114.601 60.9589C117.546 60.9589 120 58.7671 120 56.137C120 53.5068 117.546 51.3151 114.601 51.3151ZM114.601 57.5616C113.742 57.5616 113.006 56.9041 113.006 56.137C113.006 55.3699 113.742 54.7123 114.601 54.7123C115.46 54.7123 116.196 55.3699 116.196 56.137C116.196 56.9041 115.46 57.5616 114.601 57.5616Z" fill="#5C469C"/>
<path d="M90.0613 28.411H98.4049C99.1411 30.274 101.104 31.4795 103.436 31.4795C106.38 31.4795 108.834 29.2877 108.834 26.6575C108.834 24.0274 106.38 21.8356 103.436 21.8356C101.104 21.8356 99.1411 23.1507 98.4049 24.9041H90.0613C89.4479 24.137 88.4663 23.589 87.2393 23.589C85.3988 23.589 83.8037 24.9041 83.8037 26.6575C83.8037 27.7534 84.4172 28.6301 85.2761 29.1781V34.5479H73.2515V29.1781C74.1104 28.6301 74.7239 27.7534 74.7239 26.6575C74.7239 25.0137 73.2515 23.589 71.2883 23.589C69.3252 23.589 67.8528 25.0137 67.8528 26.6575C67.8528 27.7534 68.4663 28.6301 69.3252 29.1781V34.5479H57.3006V29.1781C58.1595 28.6301 58.773 27.7534 58.773 26.6575C58.773 25.5616 58.1595 24.6849 57.3006 24.137V19.3151C59.3865 18.6575 60.7362 16.9041 60.7362 14.8219C60.7362 12.1918 58.2822 10 55.3374 10C52.3926 10 49.9387 12.1918 49.9387 14.8219C49.9387 16.9041 51.411 18.6575 53.3742 19.3151V24.137C52.5153 24.6849 51.9018 25.5616 51.9018 26.6575C51.9018 27.7534 52.5153 28.6301 53.3742 29.1781V34.5479H46.3804V40.2466H40.8589C40.2454 39.4795 39.2638 38.9315 38.0368 38.9315C36.8098 38.9315 35.8282 39.4795 35.2147 40.2466H23.5583V46.1644C21.4724 46.8219 20 48.5753 20 50.6575C20 53.2877 22.454 55.4795 25.3988 55.4795C28.3436 55.4795 30.7975 53.2877 30.7975 50.6575C30.7975 48.5753 29.3252 46.8219 27.362 46.1644V43.7534H35.3374C35.9509 44.5205 36.9325 45.0685 38.1595 45.0685C39.3865 45.0685 40.3681 44.5205 40.9816 43.7534H46.5031V54.4931H40.9816C40.3681 53.726 39.3865 53.1781 38.1595 53.1781C36.319 53.1781 34.7239 54.4931 34.7239 56.2466C34.7239 58 36.1963 59.3151 38.1595 59.3151C39.3865 59.3151 40.3681 58.7671 40.9816 58H46.5031V68.7397H40.9816C40.3681 67.9726 39.3865 67.4247 38.1595 67.4247C36.9325 67.4247 35.9509 67.9726 35.3374 68.7397H30.4294C29.6933 66.8767 27.7301 65.6712 25.3988 65.6712C22.454 65.5616 20 67.6438 20 70.3836C20 73.1233 22.454 75.2055 25.3988 75.2055C27.7301 75.2055 29.6933 73.8904 30.4294 72.137H35.3374C35.9509 72.9041 36.9325 73.4521 38.1595 73.4521C39.3865 73.4521 40.3681 72.9041 40.9816 72.137H46.5031V77.6164H53.4969V82.9863C53.2515 83.0959 53.1288 83.2055 53.0061 83.4247H43.1902C42.454 81.5616 40.4908 80.3562 38.1595 80.3562C35.2147 80.3562 32.7607 82.5479 32.7607 85.1781C32.7607 87.8082 35.2147 90 38.1595 90C40.4908 90 42.454 88.6849 43.1902 86.9315H52.3926C52.8834 87.9178 54.1104 88.6849 55.4601 88.6849C57.3006 88.6849 58.8957 87.3699 58.8957 85.6164C58.8957 84.5205 58.2822 83.6438 57.4233 83.0959V77.726H69.4479V83.0959C68.589 83.6438 67.9755 84.5205 67.9755 85.6164C67.9755 87.2603 69.4479 88.6849 71.411 88.6849C73.3742 88.6849 74.8466 87.3699 74.8466 85.6164C74.8466 84.5205 74.2331 83.6438 73.3742 83.0959V77.726H85.3988V83.0959C84.5399 83.6438 83.9264 84.5205 83.9264 85.6164C83.9264 87.2603 85.3988 88.6849 87.362 88.6849C89.3252 88.6849 90.7975 87.3699 90.7975 85.6164C90.7975 84.5205 90.1841 83.6438 89.3252 83.0959V77.726C92.638 77.726 95.2147 75.3151 95.2147 72.3562V72.2466H100.736C100.982 72.5753 101.227 72.7945 101.595 73.0137V80.6849C99.5092 81.3425 98.1595 83.0959 98.1595 85.1781C98.1595 87.8082 100.613 90 103.558 90C106.503 90 108.957 87.8082 108.957 85.1781C108.957 83.0959 107.485 81.3425 105.521 80.6849V73.0137C106.38 72.4658 106.994 71.589 106.994 70.4931C106.994 68.8493 105.521 67.4247 103.558 67.4247C102.331 67.4247 101.35 67.9726 100.736 68.7397H95.2147V58H100.736C101.35 58.7671 102.331 59.3151 103.558 59.3151C105.399 59.3151 106.994 58 106.994 56.2466C106.994 54.4931 105.521 53.1781 103.558 53.1781C102.331 53.1781 101.35 53.726 100.736 54.4931H95.2147V43.7534H100.736C101.35 44.5205 102.331 45.0685 103.558 45.0685C105.399 45.0685 106.994 43.7534 106.994 42C106.994 40.2466 105.521 38.9315 103.558 38.9315C102.331 38.9315 101.35 39.4795 100.736 40.2466H95.2147V34.5479H89.3252V29.1781C89.4479 28.9589 89.8159 28.7397 90.0613 28.411ZM55.4601 13.5068C56.319 13.5068 57.0552 14.1644 57.0552 14.9315C57.0552 15.3699 56.8098 15.8082 56.4417 16.0274C56.1963 15.9178 55.8282 15.8082 55.5828 15.8082C55.2147 15.8082 54.9693 15.9178 54.7239 16.0274C54.3558 15.8082 54.1104 15.3699 54.1104 14.9315C53.865 14.1644 54.6012 13.5068 55.4601 13.5068ZM25.3988 51.9726C24.5399 51.9726 23.8037 51.3151 23.8037 50.5479C23.8037 49.7808 24.5399 49.1233 25.3988 49.1233C26.2577 49.1233 26.9939 49.7808 26.9939 50.5479C26.9939 51.4247 26.2577 51.9726 25.3988 51.9726ZM25.3988 71.6986C24.5399 71.6986 23.8037 71.0411 23.8037 70.274C23.8037 69.5068 24.5399 68.8493 25.3988 68.8493C26.2577 68.8493 26.9939 69.5068 26.9939 70.274C26.9939 71.0411 26.2577 71.6986 25.3988 71.6986ZM38.1595 86.3836C37.3006 86.3836 36.5644 85.726 36.5644 84.9589C36.5644 84.1918 37.3006 83.5342 38.1595 83.5342C39.0184 83.5342 39.7546 84.1918 39.7546 84.9589C39.7546 85.8356 39.0184 86.3836 38.1595 86.3836ZM103.436 86.3836C102.577 86.3836 101.84 85.726 101.84 84.9589C101.84 84.1918 102.577 83.5342 103.436 83.5342C104.294 83.5342 105.031 84.1918 105.031 84.9589C104.908 85.8356 104.294 86.3836 103.436 86.3836ZM91.1656 72.137C91.1656 73.2329 90.1841 74.1096 88.9571 74.1096H50.4294V37.9452H91.1656V72.137ZM103.436 25.2329C104.294 25.2329 105.031 25.8904 105.031 26.6575C105.031 27.4247 104.294 28.0822 103.436 28.0822C102.577 28.0822 101.84 27.4247 101.84 26.6575C101.84 25.8904 102.454 25.2329 103.436 25.2329Z" fill="#5C469C"/>
</g>
<g filter="url(#filter1_d_8_105)">
<path d="M168.29 31.7746C168.581 31.7746 168.813 32.0032 168.813 32.2889V68.9778C168.813 69.2635 168.581 69.4921 168.29 69.4921H161.957C161.782 69.4921 161.492 69.2635 161.492 68.9778V47.8331L155.1 69.1492C154.984 69.3778 154.868 69.4921 154.636 69.4921H150.045C149.871 69.4921 149.639 69.3778 149.58 69.1492L143.596 47.4331V68.9778C143.596 69.2635 143.363 69.4921 143.073 69.4921H136.623C136.391 69.4921 136.216 69.2635 136.216 68.9778V32.2889C136.216 32.0032 136.391 31.7746 136.623 31.7746H144.758C144.99 31.7746 145.223 31.9461 145.281 32.1175L152.311 55.2623L160.039 32.1175C160.039 31.9461 160.214 31.7746 160.446 31.7746H168.29ZM164.688 66.0061C164.688 66.4061 165.443 66.5204 165.443 66.0061V35.2035C165.443 35.0892 165.269 34.9177 165.094 34.9177H162.363C162.131 34.9177 162.073 35.0892 161.957 35.2035L152.311 63.4916L142.724 35.1463C142.724 34.9749 142.608 34.9177 142.434 34.9177H139.586C139.412 34.9177 139.238 35.0892 139.238 35.2606V66.0061C139.238 66.4061 139.993 66.5204 139.993 66.0061V35.6607H142.143L151.963 64.6917C152.195 65.0917 152.369 64.9775 152.66 64.6917L162.538 35.6607H164.688V66.0061ZM187 32.1175C187.058 31.9461 187.174 31.7746 187.407 31.7746H194.612C194.844 31.7746 194.96 31.9461 195.018 32.1175L205.07 68.8635C205.129 69.2064 204.896 69.4921 204.548 69.4921H197.924C197.749 69.4921 197.575 69.3778 197.517 69.1492L195.251 61.1486H186.767L184.559 69.1492C184.501 69.3778 184.385 69.4921 184.153 69.4921H177.471C177.122 69.4921 176.89 69.2064 176.948 68.8635L187 32.1175ZM188.627 54.0622H193.45L190.951 45.4329L188.627 54.0622ZM197.575 57.434L200.248 66.0061C200.364 66.349 201.003 66.2918 200.829 65.8347L191.532 35.4321C191.358 34.6891 190.37 34.632 190.196 35.4321L181.189 65.8347C181.015 66.2347 181.654 66.4061 181.829 66.0633L184.385 57.434H197.575ZM184.559 56.691L190.893 35.6607L197.343 56.691H184.559ZM219.19 38.9181H210.939C210.649 38.9181 210.416 38.6895 210.416 38.4038V32.2889C210.416 32.0032 210.649 31.7746 210.939 31.7746H235.169C235.459 31.7746 235.692 32.0032 235.692 32.2889V38.4038C235.692 38.6895 235.459 38.9181 235.169 38.9181H226.918V68.9778C226.918 69.2635 226.685 69.4921 226.395 69.4921H219.713C219.422 69.4921 219.19 69.2635 219.19 68.9778V38.9181ZM231.624 34.9177H214.077C213.67 34.9177 213.67 35.6607 214.077 35.6607H222.676V65.949C222.676 66.349 223.432 66.349 223.432 65.949V35.6607H231.624C232.205 35.6607 232.147 34.9177 231.624 34.9177ZM260.851 46.633V32.2889C260.851 32.0032 261.083 31.7746 261.374 31.7746H267.998C268.288 31.7746 268.521 32.0032 268.521 32.2889V68.9778C268.521 69.2635 268.288 69.4921 267.998 69.4921H261.374C261.083 69.4921 260.851 69.2635 260.851 68.9778V53.7765H251.438V68.9778C251.438 69.2635 251.206 69.4921 250.915 69.4921H244.291C244.001 69.4921 243.826 69.2635 243.826 68.9778V32.2889C243.826 32.0032 244.001 31.7746 244.291 31.7746H250.915C251.206 31.7746 251.438 32.0032 251.438 32.2889V46.633H260.851ZM247.196 65.949C247.196 66.4061 247.952 66.349 247.952 65.949V50.6334H264.279V65.949C264.279 66.349 264.918 66.4061 264.918 65.949V35.2035C264.918 34.8034 264.279 34.6891 264.279 35.2035V49.8333H247.952V35.2035C247.952 34.8034 247.196 34.8034 247.196 35.2035V65.949ZM320.641 31.7746C320.99 31.7746 321.222 32.0604 321.106 32.4032L311.112 69.1492C311.054 69.3778 310.821 69.4921 310.589 69.4921H304.197C303.965 69.4921 303.791 69.3778 303.674 69.1492L299.723 54.6909L294.378 69.2064C294.319 69.3778 294.203 69.4921 293.971 69.4921H287.812C287.579 69.4921 287.405 69.3778 287.347 69.1492L277.411 32.3461C277.353 32.0604 277.527 31.7746 277.934 31.7746H284.616C284.79 31.7746 284.965 31.9461 285.023 32.1175L291.472 56.3481L296.295 42.0041L293.622 32.4032C293.506 32.0604 293.796 31.7746 294.087 31.7746H301.292C301.524 31.7746 301.641 31.8318 301.757 32.1175L307.102 55.4338L313.494 32.1175C313.552 31.9461 313.726 31.7746 313.959 31.7746H320.641ZM300.188 42.5755L291.414 65.5489L282.001 35.0892C281.885 34.6891 281.188 34.8606 281.304 35.2606L290.717 65.7775C290.891 66.5776 291.879 66.5204 292.17 65.7775L300.479 43.7185L306.58 65.7204C306.812 66.5776 307.858 66.5776 308.032 65.7775L317.271 35.2606C317.445 34.8606 316.69 34.632 316.574 35.0892L307.393 65.5489L298.91 35.0892C298.852 34.6891 298.096 34.8034 298.271 35.2606L300.188 42.5755ZM337.433 32.1175C337.491 31.9461 337.607 31.7746 337.84 31.7746H345.045C345.277 31.7746 345.394 31.9461 345.452 32.1175L355.504 68.8635C355.562 69.2064 355.329 69.4921 354.981 69.4921H348.357C348.183 69.4921 348.008 69.3778 347.95 69.1492L345.684 61.1486H337.201L334.993 69.1492C334.935 69.3778 334.818 69.4921 334.586 69.4921H327.904C327.555 69.4921 327.323 69.2064 327.381 68.8635L337.433 32.1175ZM339.06 54.0622H343.883L341.384 45.4329L339.06 54.0622ZM348.008 57.434L350.681 66.0061C350.797 66.349 351.436 66.2918 351.262 65.8347L341.965 35.4321C341.791 34.6891 340.803 34.632 340.629 35.4321L331.623 65.8347C331.448 66.2347 332.088 66.4061 332.262 66.0633L334.818 57.434H348.008ZM334.993 56.691L341.326 35.6607L347.776 56.691H334.993ZM385.428 54.5766C384.614 56.2338 383.452 57.4911 381.825 58.234L386.706 68.8064C386.88 69.1492 386.648 69.4921 386.299 69.4921H379.152C378.92 69.4921 378.804 69.3778 378.746 69.2064L374.214 59.4913H371.25V68.9778C371.25 69.2635 371.018 69.4921 370.727 69.4921H364.045C363.813 69.4921 363.638 69.2635 363.638 68.9778V32.2889C363.638 32.0032 363.813 31.7746 364.045 31.7746H376.131C382.581 31.7746 386.474 35.3749 386.474 42.0612V49.2618C386.474 51.262 386.125 53.1479 385.428 54.5766ZM378.862 47.4902V43.7756C378.862 39.7753 377.351 39.3753 372.935 39.3753H371.25V52.0049H372.935C376.596 52.0049 378.746 51.9478 378.862 47.4902ZM367.88 66.0061V56.2338H376.247L381.128 66.1204C381.244 66.4061 381.941 66.2919 381.767 65.7775L376.886 56.0624C381.419 55.4338 382.987 53.0907 382.987 48.8618V41.7183C382.987 35.4321 377.177 34.9177 375.376 34.9177H367.531C367.415 34.9177 367.183 35.0892 367.183 35.2606V66.0061C367.183 66.4061 367.88 66.4061 367.88 66.0061ZM382.29 41.7183V48.8618C382.29 54.6909 378.513 55.4909 374.853 55.4909H367.88V35.6607H375.376C381.651 35.6607 382.29 39.8324 382.29 41.7183ZM409.832 46.3473C414.248 48.4046 420 51.662 420 57.5482C420 59.2627 419.71 62.5772 417.792 65.3775C415.642 68.5206 412.272 70.0636 407.624 70.0636C402.685 70.0636 396.932 67.7205 395.131 62.4058C395.073 62.2344 395.131 62.0629 395.306 61.9486L400.651 57.434C400.884 57.2625 401.232 57.2625 401.407 57.5482C401.523 57.834 401.755 58.2912 402.046 58.8626C402.917 60.6342 405.009 62.4058 407.333 62.4058C409.134 62.4058 411.575 61.4343 411.575 58.6912C411.575 56.0624 407.914 54.5766 405.648 53.7193C403.034 52.6907 400.361 51.3763 398.095 49.4333C395.712 47.2617 394.55 44.8614 394.55 42.0041C394.55 34.8606 401.232 31.2603 407.566 31.2603C412.563 31.2603 416.281 33.8319 418.722 38.9181C418.838 39.1467 418.722 39.4324 418.547 39.5467L413.376 43.0899C413.144 43.2042 413.028 43.2042 412.795 42.9184C410.82 40.1182 409.076 38.8038 406.752 38.8038C405.532 38.8038 402.685 39.261 402.685 41.3754C402.685 43.9471 407.508 45.2615 409.832 46.3473ZM399.257 62.1201C400.709 64.9775 404.719 66.6347 407.972 66.6347C412.214 66.6347 415.642 63.7773 416.107 59.4341C416.688 54.1194 412.446 51.8335 408.263 49.7762L406.404 48.9761C402.104 47.0902 398.966 45.6615 398.966 41.7183C398.966 37.3751 403.034 35.3749 407.043 35.3749C410.703 35.3749 412.621 37.4894 413.609 38.8038C413.957 39.261 414.538 38.8609 414.19 38.4038C413.202 37.2036 411.11 34.6891 407.043 34.6891C402.452 34.6891 398.269 36.9179 398.269 41.7183C398.269 46.0044 401.755 47.6617 406.171 49.6619L407.972 50.5191C413.725 53.205 415.817 55.7195 415.352 59.377C414.48 65.206 409.948 65.949 407.972 65.949C403.615 65.949 400.709 63.3773 399.838 61.7772C399.547 61.4914 399.14 61.7772 399.257 62.1201Z" fill="#D4ADFC"/>
</g>
</g>
<defs>
<filter id="filter0_d_8_105" x="20" y="10" width="109" height="90" filterUnits="userSpaceOnUse" color-interpolation-filters="sRGB">
<feFlood flood-opacity="0" result="BackgroundImageFix"/>
<feColorMatrix in="SourceAlpha" type="matrix" values="0 0 0 0 0 0 0 0 0 0 0 0 0 0 0 0 0 0 127 0" result="hardAlpha"/>
<feOffset dx="5" dy="6"/>
<feGaussianBlur stdDeviation="2"/>
<feComposite in2="hardAlpha" operator="out"/>
<feColorMatrix type="matrix" values="0 0 0 0 0 0 0 0 0 0 0 0 0 0 0 0 0 0 0.25 0"/>
<feBlend mode="normal" in2="BackgroundImageFix" result="effect1_dropShadow_8_105"/>
<feBlend mode="normal" in="SourceGraphic" in2="effect1_dropShadow_8_105" result="shape"/>
</filter>
<filter id="filter1_d_8_105" x="136.216" y="31.2603" width="292.784" height="48.8033" filterUnits="userSpaceOnUse" color-interpolation-filters="sRGB">
<feFlood flood-opacity="0" result="BackgroundImageFix"/>
<feColorMatrix in="SourceAlpha" type="matrix" values="0 0 0 0 0 0 0 0 0 0 0 0 0 0 0 0 0 0 127 0" result="hardAlpha"/>
<feOffset dx="5" dy="6"/>
<feGaussianBlur stdDeviation="2"/>
<feComposite in2="hardAlpha" operator="out"/>
<feColorMatrix type="matrix" values="0 0 0 0 0 0 0 0 0 0 0 0 0 0 0 0 0 0 0.25 0"/>
<feBlend mode="normal" in2="BackgroundImageFix" result="effect1_dropShadow_8_105"/>
<feBlend mode="normal" in="SourceGraphic" in2="effect1_dropShadow_8_105" result="shape"/>
</filter>
<clipPath id="clip0_8_105">
<rect width="420" height="100" fill="white"/>
</clipPath>
</defs>
</svg>
