<svg width="24" height="27" viewBox="0 0 24 27" fill="none" xmlns="http://www.w3.org/2000/svg">
<path d="M5.25 11.8125C3.8 11.8125 2.5625 11.2359 1.5375 10.0828C0.5125 8.92969 0 7.5375 0 5.90625C0 4.275 0.5125 2.88281 1.5375 1.72969C2.5625 0.576563 3.8 0 5.25 0C6.7 0 7.9375 0.576563 8.9625 1.72969C9.9875 2.88281 10.5 4.275 10.5 5.90625C10.5 7.5375 9.9875 8.92969 8.9625 10.0828C7.9375 11.2359 6.7 11.8125 5.25 11.8125ZM5.25 8.4375C5.875 8.4375 6.4065 8.19113 6.8445 7.69838C7.2825 7.20563 7.501 6.60825 7.5 5.90625C7.5 5.20312 7.281 4.60519 6.843 4.11244C6.405 3.61969 5.874 3.37387 5.25 3.375C4.625 3.375 4.0935 3.62138 3.6555 4.11413C3.2175 4.60688 2.999 5.20425 3 5.90625C3 6.60938 3.219 7.20731 3.657 7.70006C4.095 8.19281 4.626 8.43863 5.25 8.4375ZM18.75 27C17.3 27 16.0625 26.4234 15.0375 25.2703C14.0125 24.1172 13.5 22.725 13.5 21.0938C13.5 19.4625 14.0125 18.0703 15.0375 16.9172C16.0625 15.7641 17.3 15.1875 18.75 15.1875C20.2 15.1875 21.4375 15.7641 22.4625 16.9172C23.4875 18.0703 24 19.4625 24 21.0938C24 22.725 23.4875 24.1172 22.4625 25.2703C21.4375 26.4234 20.2 27 18.75 27ZM18.75 23.625C19.375 23.625 19.9065 23.3786 20.3445 22.8859C20.7825 22.3931 21.001 21.7957 21 21.0938C21 20.3906 20.781 19.7927 20.343 19.2999C19.905 18.8072 19.374 18.5614 18.75 18.5625C18.125 18.5625 17.5935 18.8089 17.1555 19.3016C16.7175 19.7944 16.499 20.3918 16.5 21.0938C16.5 21.7969 16.719 22.3948 17.157 22.8876C17.595 23.3803 18.126 23.6261 18.75 23.625ZM2.1 27L0 24.6375L21.9 0L24 2.3625L2.1 27Z" fill="#5C469C"/>
</svg>
