<svg width="28" height="28" viewBox="0 0 28 28" fill="none" xmlns="http://www.w3.org/2000/svg">
<path d="M13.9998 0.666672C15.7679 0.666672 17.4636 1.36905 18.7139 2.61929C19.9641 3.86954 20.6665 5.56523 20.6665 7.33334C20.6665 9.10145 19.9641 10.7971 18.7139 12.0474C17.4636 13.2976 15.7679 14 13.9998 14C12.2317 14 10.536 13.2976 9.28579 12.0474C8.03555 10.7971 7.33317 9.10145 7.33317 7.33334C7.33317 5.56523 8.03555 3.86954 9.28579 2.61929C10.536 1.36905 12.2317 0.666672 13.9998 0.666672ZM13.9998 17.3333C21.3665 17.3333 27.3332 20.3167 27.3332 24V27.3333H0.666504V24C0.666504 20.3167 6.63317 17.3333 13.9998 17.3333Z" fill="#D4ADFC"/>
</svg>
