<svg width="32" height="32" viewBox="0 0 32 32" fill="none" xmlns="http://www.w3.org/2000/svg">
<path d="M27.9004 17.5667C27.9671 17.0667 28.0004 16.55 28.0004 16C28.0004 15.4667 27.9671 14.9333 27.8838 14.4333L31.2671 11.8C31.4129 11.6798 31.5125 11.5128 31.549 11.3274C31.5854 11.1421 31.5565 10.9498 31.4671 10.7833L28.2671 5.25C28.1729 5.08261 28.0225 4.95396 27.8425 4.88685C27.6625 4.81974 27.4646 4.8185 27.2838 4.88334L23.3004 6.48334C22.4671 5.85 21.5838 5.31667 20.6004 4.91667L20.0004 0.683338C19.9709 0.492555 19.874 0.318683 19.7272 0.193298C19.5804 0.0679134 19.3935 -0.000669175 19.2004 4.92233e-06H12.8004C12.4004 4.92233e-06 12.0838 0.283338 12.0171 0.683338L11.4171 4.91667C10.4338 5.31667 9.53376 5.86667 8.7171 6.48334L4.73376 4.88334C4.36709 4.75 3.95043 4.88334 3.75043 5.25L0.567095 10.7833C0.367095 11.1333 0.433762 11.5667 0.767095 11.8L4.15043 14.4333C4.0671 14.9333 4.00043 15.4833 4.00043 16C4.00043 16.5167 4.03376 17.0667 4.11709 17.5667L0.733762 20.2C0.587968 20.3202 0.488351 20.4872 0.451883 20.6726C0.415414 20.8579 0.444351 21.0502 0.533762 21.2167L3.73376 26.75C3.93376 27.1167 4.35043 27.2333 4.7171 27.1167L8.70043 25.5167C9.53376 26.15 10.4171 26.6833 11.4004 27.0833L12.0004 31.3167C12.0838 31.7167 12.4004 32 12.8004 32H19.2004C19.6004 32 19.9338 31.7167 19.9838 31.3167L20.5838 27.0833C21.5671 26.6833 22.4671 26.15 23.2838 25.5167L27.2671 27.1167C27.6338 27.25 28.0504 27.1167 28.2504 26.75L31.4504 21.2167C31.6504 20.85 31.5671 20.4333 31.2504 20.2L27.9004 17.5667ZM16.0004 22C12.7004 22 10.0004 19.3 10.0004 16C10.0004 12.7 12.7004 10 16.0004 10C19.3004 10 22.0004 12.7 22.0004 16C22.0004 19.3 19.3004 22 16.0004 22Z" fill="#D4ADFC"/>
</svg>
