<svg width="30" height="32" viewBox="0 0 30 32" fill="none" xmlns="http://www.w3.org/2000/svg">
<path d="M27.5 0.25H2.5C1.83696 0.25 1.20107 0.513392 0.732233 0.982233C0.263392 1.45107 0 2.08696 0 2.75V11.9328C0 25.9359 11.8469 30.5797 14.2188 31.3672C14.7252 31.5405 15.2748 31.5405 15.7812 31.3672C18.1562 30.5781 30 25.9344 30 11.9313V2.75C30 2.08696 29.7366 1.45107 29.2678 0.982233C28.7989 0.513392 28.163 0.25 27.5 0.25ZM2.60313 14H15V2.75H27.5V11.9328C27.5005 12.6221 27.4661 13.311 27.3969 13.9969H15V28.9969C13.0094 28.3328 3.68594 24.6656 2.60313 14Z" fill="#D4ADFC"/>
</svg>
