<svg width="40" height="40" viewBox="0 0 40 40" fill="none" xmlns="http://www.w3.org/2000/svg">
<path d="M39.5 1.25L39.25 0.750002L38.75 0.500002C38.5 0.500002 32.5 -1.5 28.25 2.75L11.5 19.25C9.25 17.75 7.25 16.25 7 16.75L6 17.5C5.5 18 8.25 21.75 10.5 24.25L4.25 32.75C3.5 32 2.25 32 1.5 32.75L0.75 33.5C0 34.25 0 35.5 0.75 36.25L3.25 38.75C4 39.5 5.25 39.5 6 38.75L6.75 38C7.5 37.25 7.5 36 6.75 35.25L15.5 29C18 31.25 21.75 34 22.25 33.5L23.25 32.5C23.5 32.25 22.25 30 20.5 28L37.25 11.25C41.5 7.5 39.5 1.5 39.5 1.25ZM19.25 26.25L17.25 24.25L32.75 7L15.5 22.5L13.75 20.75L30 4.5C32.5 2 35.75 2.5 37.25 2.75C37.5 4.25 38 7.5 35.5 9.75L19.25 26.25Z" fill="#D4ADFC"/>
</svg>
