<svg width="20" height="25" viewBox="0 0 20 25" fill="none" xmlns="http://www.w3.org/2000/svg">
<path d="M2.61258 0.115119C2.53937 0.11306 2.46625 0.122305 2.39527 0.142594C1.4348 0.420082 0.840756 1.2305 0.702334 2.18072C0.563959 3.13095 0.803959 4.20288 1.29652 5.2495C2.2666 7.31067 4.26193 9.31426 6.82083 9.77674C6.55787 9.42237 6.30287 9.02549 6.05799 8.59681C4.22949 7.93394 2.77576 6.36383 2.04221 4.80526C1.61068 3.88837 1.44005 2.9864 1.53502 2.33429C1.63004 1.68217 1.9134 1.26178 2.60508 1.06191C2.60813 1.06102 2.60827 1.06012 2.6094 1.05912C2.61432 1.0549 2.60635 1.05158 2.6094 1.05912C2.61141 1.06353 2.61422 1.06743 2.61765 1.07056C2.64235 1.09656 2.69682 1.18869 2.7211 1.34162C2.76966 1.64769 2.70174 2.1639 2.33977 2.69583L3.00976 3.27285C3.4981 2.55514 3.6496 1.79176 3.55163 1.17482C3.50269 0.86632 3.39244 0.586037 3.19407 0.377262C3.04529 0.220693 2.83093 0.120603 2.61258 0.115119ZM17.3878 0.115119C17.1694 0.120603 16.9551 0.220746 16.8063 0.377314C16.6079 0.586142 16.4977 0.866373 16.4487 1.17487C16.3508 1.79181 16.5023 2.55514 16.9906 3.27291L17.6606 2.69589C17.2986 2.16395 17.2307 1.64774 17.2793 1.34167C17.3035 1.18874 17.358 1.09661 17.3827 1.07061C17.3861 1.06747 17.3889 1.06357 17.391 1.05917C17.394 1.05163 17.386 1.05495 17.391 1.05917C17.3921 1.06017 17.3922 1.06107 17.3953 1.06196C18.087 1.26183 18.3703 1.68212 18.4653 2.33429C18.5603 2.9864 18.3897 3.88837 17.9581 4.80526C17.2246 6.36383 15.7709 7.93399 13.9424 8.59681C13.6975 9.02549 13.4424 9.42237 13.1795 9.77674C15.7384 9.31426 17.7338 7.31067 18.7038 5.2495C19.1964 4.20288 19.4364 3.13095 19.298 2.18072C19.1596 1.23045 18.5656 0.420082 17.6051 0.142594C17.5341 0.122305 17.461 0.11306 17.3878 0.115119ZM4.44249 0.521859C4.54308 2.4484 5.22812 4.9025 6.15516 6.89344C6.65705 7.97143 7.22748 8.91496 7.78458 9.56628C8.34174 10.2177 8.87518 10.5413 9.25018 10.5413H10.7502C11.1252 10.5413 11.6586 10.2177 12.2158 9.56628C12.7729 8.91496 13.3433 7.97143 13.8452 6.89344C14.7722 4.90245 15.4572 2.44846 15.5579 0.521859H4.44249ZM8.92205 11.4906V12.3344H11.0783V11.4906H8.92205ZM9.22416 13.2836C9.10894 14.6529 8.62435 16.3355 8.07868 17.2914H11.9217C11.3761 16.3355 10.8914 14.6529 10.7762 13.2836H9.22416ZM7.42205 18.2406V18.9789H12.5783V18.2406H7.42205ZM5.92205 19.9281V24.8851H14.0783V19.9281H5.92205ZM7.00018 21.141H13.0002V23.6722H7.00018V21.141Z" fill="#5C469C"/>
</svg>
