<svg width="30" height="29" viewBox="0 0 30 29" fill="none" xmlns="http://www.w3.org/2000/svg">
<path d="M20.5833 28.8333C20.0278 29.0556 19.5139 28.9861 19.0417 28.625C18.5695 28.2639 18.3333 27.7639 18.3333 27.125C18.3333 26.8195 18.4239 26.5489 18.605 26.3133C18.7861 26.0778 19.015 25.9039 19.2917 25.7917C21.5139 24.9028 23.2989 23.4861 24.6467 21.5417C25.9944 19.5972 26.6678 17.4028 26.6667 14.9583C26.6667 12.5139 25.9928 10.3195 24.645 8.37501C23.2972 6.43057 21.5128 5.0139 19.2917 4.12501C18.9861 4.0139 18.75 3.83334 18.5833 3.58334C18.4167 3.33334 18.3333 3.05557 18.3333 2.75001C18.3333 2.1389 18.5695 1.65279 19.0417 1.29168C19.5139 0.930566 20.0278 0.861122 20.5833 1.08334C23.4167 2.22223 25.6945 4.04168 27.4167 6.54168C29.1389 9.04168 30 11.8472 30 14.9583C30 18.0695 29.1389 20.875 27.4167 23.375C25.6945 25.875 23.4167 27.6945 20.5833 28.8333ZM1.66667 20C1.19445 20 0.798339 19.84 0.478339 19.52C0.158339 19.2 -0.00110534 18.8045 5.76702e-06 18.3333V11.6667C5.76702e-06 11.1945 0.160006 10.7983 0.480006 10.4783C0.800006 10.1583 1.19556 9.9989 1.66667 10H6.66667L12.1667 4.50001C12.6945 3.97223 13.2989 3.8539 13.98 4.14501C14.6611 4.43612 15.0011 4.95723 15 5.70834V24.2917C15 25.0417 14.6595 25.5628 13.9783 25.855C13.2972 26.1472 12.6933 26.0289 12.1667 25.5L6.66667 20H1.66667ZM18.3333 21.6667V8.25001C19.5833 8.83334 20.5906 9.73612 21.355 10.9583C22.1194 12.1806 22.5011 13.5278 22.5 15C22.5 16.4722 22.1178 17.8056 21.3533 19C20.5889 20.1945 19.5822 21.0833 18.3333 21.6667Z" fill="#D4ADFC"/>
</svg>
