<svg width="34" height="34" viewBox="0 0 34 34" fill="none" xmlns="http://www.w3.org/2000/svg">
<path d="M30.9997 33.6667L25.958 28.625C25.2636 29.0694 24.5275 29.4517 23.7497 29.7717C22.9719 30.0917 22.1663 30.3483 21.333 30.5417V27.125C21.7219 26.9861 22.1041 26.8472 22.4797 26.7083C22.8552 26.5694 23.2091 26.4028 23.5413 26.2083L17.9997 20.6667V29.3333L9.66634 21H2.99967V11H8.33301L0.333008 2.99999L2.66634 0.666656L33.333 31.3333L30.9997 33.6667ZM30.6663 24L28.2497 21.5833C28.7219 20.7222 29.0763 19.8194 29.313 18.875C29.5497 17.9305 29.6675 16.9583 29.6663 15.9583C29.6663 13.3472 28.9025 11.0139 27.3747 8.95832C25.8469 6.90277 23.833 5.51388 21.333 4.79166V1.37499C24.7775 2.15277 27.583 3.8961 29.7497 6.60499C31.9163 9.31388 32.9997 12.4317 32.9997 15.9583C32.9997 17.4305 32.798 18.8472 32.3947 20.2083C31.9913 21.5694 31.4152 22.8333 30.6663 24ZM25.083 18.4167L21.333 14.6667V9.24999C22.6386 9.8611 23.6597 10.7778 24.3963 12C25.133 13.2222 25.5008 14.5555 25.4997 16C25.4997 16.4167 25.4647 16.8267 25.3947 17.23C25.3247 17.6333 25.2208 18.0289 25.083 18.4167ZM17.9997 11.3333L13.6663 6.99999L17.9997 2.66666V11.3333Z" fill="#D4ADFC"/>
</svg>
