<svg width="26" height="28" viewBox="0 0 26 28" fill="none" xmlns="http://www.w3.org/2000/svg">
<path d="M9 9.66667H9.01333M17 9.66667H17.0133M1 14C1 15.7072 1.31039 17.3977 1.91345 18.9749C2.5165 20.5521 3.40042 21.9852 4.51472 23.1924C5.62902 24.3995 6.95189 25.3571 8.4078 26.0104C9.86371 26.6637 11.4241 27 13 27C14.5759 27 16.1363 26.6637 17.5922 26.0104C19.0481 25.3571 20.371 24.3995 21.4853 23.1924C22.5996 21.9852 23.4835 20.5521 24.0866 18.9749C24.6896 17.3977 25 15.7072 25 14C25 12.2928 24.6896 10.6023 24.0866 9.02512C23.4835 7.44788 22.5996 6.01477 21.4853 4.80761C20.371 3.60045 19.0481 2.64288 17.5922 1.98957C16.1363 1.33626 14.5759 1 13 1C11.4241 1 9.86371 1.33626 8.4078 1.98957C6.95189 2.64288 5.62902 3.60045 4.51472 4.80761C3.40042 6.01477 2.5165 7.44788 1.91345 9.02512C1.31039 10.6023 1 12.2928 1 14Z" stroke="#5C469C" stroke-width="2" stroke-linecap="round" stroke-linejoin="round"/>
<path d="M7.66699 15.4444C7.66699 16.9768 8.2289 18.4464 9.22909 19.5299C10.2293 20.6135 11.5858 21.2222 13.0003 21.2222C14.4148 21.2222 15.7714 20.6135 16.7716 19.5299C17.7718 18.4464 18.3337 16.9768 18.3337 15.4444H7.66699Z" stroke="#5C469C" stroke-width="2" stroke-linecap="round" stroke-linejoin="round"/>
</svg>
